<svg width="36" height="36" viewBox="0 0 36 36" fill="none" xmlns="http://www.w3.org/2000/svg">
<circle cx="18" cy="18" r="18" fill="#8F67CA"/>
<path d="M20.043 27.2363H19.9199C18.6621 26.9082 17.582 26.293 16.6797 25.3906C16.1602 24.8711 15.7158 24.167 15.3467 23.2783C14.9775 22.3896 14.793 21.5762 14.793 20.8379C14.793 20.127 15.0527 19.5186 15.5723 19.0127C16.0918 18.5068 16.7207 18.2539 17.459 18.2539C18.1973 18.2539 18.833 18.5068 19.3662 19.0127C19.8994 19.5186 20.166 20.127 20.166 20.8379C20.166 21.3027 20.3369 21.6992 20.6787 22.0273C21.0205 22.3555 21.4512 22.5195 21.9707 22.5195C22.4902 22.5195 22.9277 22.3555 23.2832 22.0273C23.6387 21.6992 23.8164 21.3027 23.8164 20.8379C23.8164 19.1973 23.1943 17.7891 21.9502 16.6133C20.7061 15.4375 19.209 14.8496 17.459 14.8496C16.2012 14.8496 15.0527 15.1709 14.0137 15.8135C12.9746 16.4561 12.1953 17.3105 11.6758 18.377C11.3477 19.0605 11.1836 19.8809 11.1836 20.8379C11.1836 21.9316 11.375 22.9844 11.7578 23.9961C11.8398 24.2695 11.7441 24.4473 11.4707 24.5293C11.1973 24.6113 11.0195 24.5293 10.9375 24.2832C10.5 23.1621 10.2812 22.0137 10.2812 20.8379C10.2812 19.7715 10.4863 18.8281 10.8965 18.0078C11.4707 16.7773 12.3525 15.793 13.542 15.0547C14.7314 14.3164 16.0371 13.9473 17.459 13.9473C19.4551 13.9473 21.1572 14.624 22.5654 15.9775C23.9736 17.3311 24.6777 18.9512 24.6777 20.8379C24.6777 21.5488 24.4111 22.1504 23.8779 22.6426C23.3447 23.1348 22.709 23.3809 21.9707 23.3809C21.2324 23.3809 20.6035 23.1348 20.084 22.6426C19.5645 22.1504 19.3047 21.5488 19.3047 20.8379C19.3047 20.373 19.127 19.9697 18.7715 19.6279C18.416 19.2861 17.9785 19.1152 17.459 19.1152C16.9395 19.1152 16.5088 19.2861 16.167 19.6279C15.8252 19.9697 15.6543 20.373 15.6543 20.8379C15.6543 22.3691 16.2012 23.6816 17.2949 24.7754C18.0605 25.541 19.0176 26.0742 20.166 26.375C20.4121 26.4023 20.5078 26.5801 20.4531 26.9082C20.3984 27.127 20.2617 27.2363 20.043 27.2363ZM17.8691 20.8379C17.8691 21.8496 18.2451 22.7246 18.9971 23.4629C19.749 24.2012 20.6855 24.5703 21.8066 24.5703C21.8613 24.5703 21.9844 24.5566 22.1758 24.5293C22.3672 24.502 22.5244 24.4883 22.6475 24.4883C22.7705 24.4883 22.8936 24.5088 23.0166 24.5498C23.1396 24.5908 23.2148 24.6797 23.2422 24.8164C23.2969 25.1172 23.1738 25.2949 22.873 25.3496C22.5449 25.4043 22.1895 25.4316 21.8066 25.4316C20.7129 25.4316 19.8105 25.1719 19.0996 24.6523C17.7051 23.6953 17.0078 22.4238 17.0078 20.8379C17.0078 20.5371 17.1582 20.3867 17.459 20.3867C17.7324 20.3867 17.8691 20.5371 17.8691 20.8379ZM15.5312 27.0723C15.4219 27.0723 15.3262 27.0312 15.2441 26.9492C14.5059 26.2109 13.918 25.4316 13.4805 24.6113C12.8516 23.5176 12.5371 22.2598 12.5371 20.8379C12.5371 19.5527 13.0225 18.4453 13.9932 17.5156C14.9639 16.5859 16.1328 16.1211 17.5 16.1211C18.8672 16.1211 20.0361 16.5859 21.0068 17.5156C21.9775 18.4453 22.4629 19.5527 22.4629 20.8379C22.4629 21.1113 22.3125 21.248 22.0117 21.248C21.7109 21.248 21.5605 21.1113 21.5605 20.8379C21.5605 19.7715 21.1641 18.8623 20.3711 18.1104C19.5781 17.3584 18.6211 16.9824 17.5 16.9824C16.3789 16.9824 15.4219 17.3584 14.6289 18.1104C13.8359 18.8623 13.4395 19.7715 13.4395 20.8379C13.4395 22.1504 13.6992 23.2715 14.2188 24.2012C14.5742 24.8301 15.1211 25.541 15.8594 26.334C16.0781 26.5254 16.0781 26.7305 15.8594 26.9492C15.7773 27.0312 15.668 27.0723 15.5312 27.0723ZM10.0762 16.4902C9.77539 16.4902 9.625 16.3535 9.625 16.0801C9.625 16.0254 9.65234 15.9434 9.70703 15.834C10.582 14.5762 11.6758 13.6191 12.9883 12.9629C14.3555 12.252 15.8594 11.8965 17.5 11.8965C19.1406 11.8965 20.6445 12.252 22.0117 12.9629C23.3516 13.6191 24.4453 14.5625 25.293 15.793C25.3477 15.9023 25.375 15.9844 25.375 16.0391C25.375 16.2305 25.2656 16.3672 25.0469 16.4492C24.8281 16.5312 24.6641 16.4766 24.5547 16.2852C23.7344 15.1641 22.75 14.3164 21.6016 13.7422C20.3438 13.1133 18.9766 12.792 17.5 12.7783C16.0234 12.7646 14.6562 13.0859 13.3984 13.7422C12.168 14.3711 11.1699 15.2324 10.4043 16.3262C10.3223 16.4355 10.2129 16.4902 10.0762 16.4902ZM22.5859 11.8965C22.4766 11.8965 22.4082 11.8828 22.3809 11.8555C20.7676 11.0352 19.1406 10.625 17.5 10.625C15.7227 10.625 14.0957 11.0352 12.6191 11.8555C12.4824 11.9375 12.3457 11.9375 12.209 11.8555C12.0723 11.7734 12.0039 11.6504 12.0039 11.4863C12.0039 11.2949 12.0723 11.1582 12.209 11.0762C13.7949 10.2012 15.5586 9.76367 17.5 9.76367C19.2773 9.76367 21.041 10.2012 22.791 11.0762C23.0371 11.2129 23.0918 11.4043 22.9551 11.6504C22.8457 11.8145 22.7227 11.8965 22.5859 11.8965Z" fill="white"/>
</svg>
