<svg width="36" height="36" viewBox="0 0 36 36" fill="none" xmlns="http://www.w3.org/2000/svg">
<circle cx="18" cy="18" r="18" fill="#E9E9E9"/>
<path d="M23.5 25.3477V16.1523H12.5V25.3477H23.5ZM15.1641 12.5V14.3477H20.8359V12.5C20.8359 11.7266 20.5566 11.0605 19.998 10.502C19.4395 9.94336 18.7734 9.66406 18 9.66406C17.2266 9.66406 16.5605 9.94336 16.002 10.502C15.4434 11.0605 15.1641 11.7266 15.1641 12.5ZM23.5 14.3477C23.987 14.3477 24.4167 14.5267 24.7891 14.8848C25.1615 15.2428 25.3477 15.6654 25.3477 16.1523V25.3477C25.3477 25.8346 25.1615 26.2572 24.7891 26.6152C24.4167 26.9733 23.987 27.1523 23.5 27.1523H12.5C12.013 27.1523 11.5833 26.9733 11.2109 26.6152C10.8385 26.2572 10.6523 25.8346 10.6523 25.3477V16.1523C10.6523 15.6654 10.8385 15.2428 11.2109 14.8848C11.5833 14.5267 12.013 14.3477 12.5 14.3477H13.4023V12.5C13.4023 11.2396 13.8535 10.1582 14.7559 9.25586C15.6582 8.35352 16.7396 7.90234 18 7.90234C19.2604 7.90234 20.3418 8.35352 21.2441 9.25586C22.1465 10.1582 22.5977 11.2396 22.5977 12.5V14.3477H23.5ZM18 22.5977C17.513 22.5977 17.0833 22.4115 16.7109 22.0391C16.3385 21.6667 16.1523 21.237 16.1523 20.75C16.1523 20.263 16.3385 19.8333 16.7109 19.4609C17.0833 19.0885 17.513 18.9023 18 18.9023C18.487 18.9023 18.9167 19.0885 19.2891 19.4609C19.6615 19.8333 19.8477 20.263 19.8477 20.75C19.8477 21.237 19.6615 21.6667 19.2891 22.0391C18.9167 22.4115 18.487 22.5977 18 22.5977Z" fill="#8F67CA"/>
</svg>
